<svg xmlns="http://www.w3.org/2000/svg" version="1.1" xmlns:xlink="http://www.w3.org/1999/xlink" xmlns:svgjs="http://svgjs.dev/svgjs" width="1000" height="1021" viewBox="0 0 1000 1021"><g transform="matrix(1,0,0,1,-0.060682158920371876,-1.4446063829785203)"><svg viewBox="0 0 138 141" data-background-color="#1f2d5a" preserveAspectRatio="xMidYMid meet" height="1021" width="1000" xmlns="http://www.w3.org/2000/svg" xmlns:xlink="http://www.w3.org/1999/xlink"><g id="tight-bounds" transform="matrix(1,0,0,1,0.008374137931014047,0.19949999999997203)"><svg viewBox="0 0 137.98325172413797 140.60052000000002" height="140.60052000000002" width="137.98325172413797"><g><svg viewBox="0 0 137.98325172413797 140.60052000000002" height="140.60052000000002" width="137.98325172413797"><g><svg viewBox="0 0 137.98325172413797 140.60052000000002" height="140.60052000000002" width="137.98325172413797"><g><path d="M0 140.601v-140.601h137.983v140.601z" fill="#fbfbfb" stroke="transparent" stroke-width="0" rx="0%" data-fill-palette-color="tertiary"></path><path d="M3.283 137.317v-134.034h131.417v134.034z" fill="#1f2d5a" stroke="transparent" stroke-width="0" rx="0%" data-fill-palette-color="quaternary"></path><path d="M9.85 130.751v-120.901h118.283v120.901z" fill="#fbfbfb" stroke="transparent" stroke-width="0" data-fill-palette-color="tertiary"></path></g><g transform="matrix(1,0,0,1,19.699740000000006,19.69974)" id="textblocktransform"><svg viewBox="0 0 98.58377172413796 101.20104000000002" height="101.20104000000002" width="98.58377172413796" id="textblock"><g><svg viewBox="0 0 98.58377172413796 101.20104000000002" height="101.20104000000002" width="98.58377172413796"><g transform="matrix(1,0,0,1,0,0)"><svg width="98.58377172413796" viewBox="0.6 -35.5 45.199999999999996 46.400000000000006" height="101.20104000000002" data-palette-color="#1f2d5a"><path d="M1.7 10.9L1.7 10.9 0.6 9Q2.7 7.6 4.35 5.55 6 3.5 6 1.8L6 1.8 6-31.3Q6-32.05 5.9-32.45 5.8-32.85 5.25-33.18 4.7-33.5 3.6-33.5L3.6-33.5 2-33.5 2-35 14.7-35 14.7-33.5 12.8-33.5Q11.7-33.5 11.15-33.18 10.6-32.85 10.5-32.45 10.4-32.05 10.4-31.3L10.4-31.3 10.4 0.3Q10.4 5.45 7.6 7.7L7.6 7.7Q6.65 8.45 5.9 8.83 5.15 9.2 3.8 9.83 2.45 10.45 1.7 10.9ZM18.6-35L25.3-35 33.9-35.5Q40.7-35.5 42.55-32.2L42.55-32.2Q43.3-30.85 43.3-28.9L43.3-28.9Q43.3-23.1 38.5-19.7L38.5-19.7Q43.6-18.75 45.1-15.7L45.1-15.7Q45.8-14.2 45.8-12.1L45.8-12.1Q45.8-7.05 41.57-3.53 37.35 0 31.6 0L31.6 0 18.6 0 18.6-1.5 20.3-1.5Q21.8-1.5 22.2-2.05 22.6-2.6 22.6-3.7L22.6-3.7 22.6-31.3Q22.6-32.5 22.17-33 21.75-33.5 20.3-33.5L20.3-33.5 18.6-33.5 18.6-35ZM30.7-32.8L30.7-32.8Q28.7-32.8 27-32.5L27-32.5 27-19.4 33.1-19.4Q35.85-19.4 37.77-21.43 39.7-23.45 39.7-25.8L39.7-25.8Q39.7-29.2 37-31 34.3-32.8 30.7-32.8ZM31.6-17.3L31.6-17.3 27-17.3 27-3.1Q30.05-2.2 32.7-2.2L32.7-2.2Q36.7-2.2 39.2-4.17 41.7-6.15 41.7-9.5L41.7-9.5Q41.7-13.95 38.5-15.7L38.5-15.7Q35.65-17.3 31.6-17.3Z" opacity="1" transform="matrix(1,0,0,1,0,0)" fill="#1f2d5a" class="undefined-text-0" data-fill-palette-color="quaternary" id="text-0"></path></svg></g></svg></g></svg></g></svg></g><g></g></svg></g><defs></defs></svg><rect width="137.98325172413797" height="140.60052000000002" fill="none" stroke="none" visibility="hidden"></rect></g></svg></g></svg>